<svg width="16" height="16" viewBox="0 0 16 16" fill="none" xmlns="http://www.w3.org/2000/svg">
<path d="M6.10671 7.24671C6.04004 7.24004 5.96004 7.24004 5.88671 7.24671C4.30004 7.19337 3.04004 5.89337 3.04004 4.29337C3.04004 2.66004 4.36004 1.33337 6.00004 1.33337C7.63337 1.33337 8.96004 2.66004 8.96004 4.29337C8.95337 5.89337 7.69337 7.19337 6.10671 7.24671Z" stroke="#94A3B8" stroke-width="1.33333" stroke-linecap="round" stroke-linejoin="round"/>
<path d="M10.94 2.66663C12.2334 2.66663 13.2734 3.71329 13.2734 4.99996C13.2734 6.25996 12.2734 7.28663 11.0267 7.33329C10.9734 7.32663 10.9134 7.32663 10.8534 7.33329" stroke="#94A3B8" stroke-width="1.33333" stroke-linecap="round" stroke-linejoin="round"/>
<path d="M2.77332 9.70663C1.15999 10.7866 1.15999 12.5466 2.77332 13.62C4.60666 14.8466 7.61332 14.8466 9.44666 13.62C11.06 12.54 11.06 10.78 9.44666 9.70663C7.61999 8.48663 4.61332 8.48663 2.77332 9.70663Z" stroke="#94A3B8" stroke-width="1.33333" stroke-linecap="round" stroke-linejoin="round"/>
<path d="M12.2267 13.3334C12.7067 13.2334 13.16 13.04 13.5334 12.7534C14.5734 11.9734 14.5734 10.6867 13.5334 9.90671C13.1667 9.62671 12.72 9.44004 12.2467 9.33337" stroke="#94A3B8" stroke-width="1.33333" stroke-linecap="round" stroke-linejoin="round"/>
</svg>
